<?xml version="1.0" standalone="no"?>
<!DOCTYPE svg PUBLIC "-//W3C//DTD SVG 20010904//EN"
 "http://www.w3.org/TR/2001/REC-SVG-20010904/DTD/svg10.dtd">
<svg version="1.0" xmlns="http://www.w3.org/2000/svg"
 width="700.000000pt" height="700.000000pt" viewBox="0 0 700.000000 700.000000"
 preserveAspectRatio="xMidYMid meet">
<metadata>
Created by potrace 1.14, written by Peter Selinger 2001-2017
</metadata>
<g transform="translate(0.000000,700.000000) scale(0.100000,-0.100000)"
fill="#000000" stroke="none">
<path d="M5674 6402 c-19 -3 -30 -40 -113 -365 -51 -199 -96 -375 -100 -392
l-7 -30 -2725 0 -2724 0 2 -29 c2 -28 24 -149 63 -346 11 -52 24 -122 30 -155
6 -33 13 -69 15 -80 2 -11 6 -36 9 -55 3 -19 8 -46 11 -60 3 -14 12 -61 20
-105 20 -110 24 -130 40 -210 8 -38 16 -83 19 -100 2 -16 18 -104 36 -195 17
-91 35 -189 40 -218 5 -30 11 -61 14 -70 3 -10 7 -33 10 -52 5 -30 24 -136 41
-220 3 -14 18 -97 35 -185 16 -88 32 -171 35 -185 3 -14 8 -41 10 -60 3 -19 8
-46 11 -60 3 -14 8 -36 10 -50 5 -28 16 -84 44 -240 11 -58 22 -118 25 -135 3
-16 12 -64 20 -105 8 -41 17 -86 19 -100 2 -14 7 -37 11 -52 l7 -28 2312 0
2312 0 53 208 c29 114 79 311 112 437 33 127 61 239 63 250 3 11 18 72 35 135
56 215 201 782 207 814 2 10 8 33 14 51 6 18 12 41 14 51 2 10 21 84 41 164
20 80 38 152 40 160 2 8 18 69 35 135 17 66 67 262 111 435 44 173 84 329 89
345 5 17 12 44 14 60 3 17 12 48 19 70 l14 39 466 0 467 0 0 263 0 263 -52 1
c-241 2 -1258 3 -1274 1z m-367 -1329 c3 -7 -9 -65 -26 -130 -35 -137 -106
-414 -161 -628 -21 -83 -41 -162 -44 -175 -3 -14 -15 -61 -27 -105 -11 -44
-23 -87 -25 -95 -2 -8 -11 -42 -20 -75 -9 -33 -17 -67 -19 -75 -3 -14 -41
-167 -49 -200 -2 -8 -25 -96 -51 -195 -25 -99 -48 -189 -50 -200 -19 -88 -40
-145 -54 -146 -21 0 -3686 0 -3731 0 l-35 1 -12 73 c-13 78 -17 96 -38 202 -8
39 -17 86 -20 105 -3 19 -8 46 -10 60 -7 32 -9 42 -40 210 -14 77 -28 149 -30
160 -2 11 -16 83 -30 160 -14 77 -28 150 -31 162 -2 13 -8 48 -14 78 -6 30
-12 66 -15 80 -3 14 -9 50 -15 80 -6 30 -12 66 -15 80 -3 14 -9 50 -15 80 -6
30 -12 66 -15 80 -3 14 -12 61 -19 105 -8 44 -24 129 -35 189 -12 61 -21 115
-21 121 0 17 4662 14 4667 -2z"/>
<path d="M1257 2284 c-1 -1 -24 -4 -52 -7 -80 -8 -174 -35 -261 -77 -416 -200
-594 -698 -399 -1115 85 -181 238 -331 421 -412 104 -46 176 -63 299 -70 291
-16 569 120 735 359 99 143 141 273 146 448 2 69 -1 148 -7 175 -6 28 -12 60
-15 71 -2 12 -11 38 -19 57 -8 20 -15 38 -15 40 0 2 362 4 805 4 733 0 805 -2
800 -16 -63 -158 -66 -392 -8 -571 89 -274 330 -486 633 -555 90 -20 290 -13
385 13 575 163 810 848 452 1320 -128 169 -311 283 -520 323 -47 9 -475 13
-1720 13 -912 1 -1659 0 -1660 0z m190 -561 c189 -93 234 -348 87 -497 -54
-56 -92 -76 -163 -91 -62 -13 -145 -4 -198 21 -56 27 -121 92 -149 150 -39 79
-40 186 -3 264 78 165 264 232 426 153z m3168 3 c66 -30 123 -86 155 -152 35
-73 35 -189 -1 -264 -97 -201 -357 -245 -510 -86 -59 60 -82 117 -85 208 -4
98 20 160 87 229 94 96 231 122 354 65z"/>
</g>
</svg>
